Coordinates
version=1
nRows=14
nColumns=24
inDegrees=yes

Units are S.I. units (second, meters, Newtons, ...)
Angles are in degrees.

endheader
time	pelvis_tilt	pelvis_list	pelvis_rotation	pelvis_tx	pelvis_ty	pelvis_tz	hip_flexion_r	hip_adduction_r	hip_rotation_r	knee_angle_r	ankle_angle_r	subtalar_angle_r	mtp_angle_r	hip_flexion_l	hip_adduction_l	hip_rotation_l	knee_angle_l	ankle_angle_l	subtalar_angle_l	mtp_angle_l	lumbar_extension	lumbar_bending	lumbar_rotation
      0.66183333	      0.42525017	     -0.98530950	     -0.65087474	     -0.46427433	      1.06730105	      0.30630156	     11.53183802	      5.44159156	     -2.15156687	    -17.13278106	      4.90566320	     -6.45835513	      0.38433026	     16.28093583	     -1.90239477	     -2.68150934	    -65.66925091	      5.97053561	      1.84935896	      2.80629482	     -1.09163963	      4.24276705	     -0.24416796
      0.66600000	      0.41849516	     -0.83111491	     -0.60220718	     -0.45910575	      1.06786394	      0.30655728	     11.20295222	      5.33044509	     -1.94448621	    -17.08602530	      4.94256936	     -6.65560181	      0.38249630	     16.88373524	     -1.71242701	     -2.55282985	    -65.44332819	      6.28092009	      1.53539753	      2.79868141	     -1.10784263	      3.96852189	     -0.16691939
      0.67016667	      0.38020424	     -0.65453683	     -0.62741900	     -0.45370570	      1.06842887	      0.30690036	     10.90114541	      5.20460503	     -1.78641816	    -17.02471317	      5.00344031	     -6.97800786	      0.37868035	     17.45923547	     -1.52056194	     -2.55265927	    -65.08874147	      6.71473091	      1.04315908	      2.78499753	     -1.08711856	      3.72558557	     -0.08850119
      0.67433333	      0.35655373	     -0.49358590	     -0.61947191	     -0.44839758	      1.06897212	      0.30722973	     10.58061003	      5.09377680	     -1.58765400	    -16.95859653	      5.04526590	     -7.27111686	      0.37476497	     18.01826856	     -1.34009475	     -2.51376396	    -64.66938825	      7.04102526	      0.56177187	      2.76595769	     -1.07868380	      3.49402429	     -0.01285566
      0.67850000	      0.34377522	     -0.33242456	     -0.60609818	     -0.44308515	      1.06951637	      0.30750192	     10.24757748	      4.97496122	     -1.41696720	    -16.89208952	      5.09620468	     -7.55452829	      0.37046941	     18.54512005	     -1.15223100	     -2.47924918	    -64.16614772	      7.32948116	      0.07433635	      2.74371094	     -1.08075485	      3.27667060	      0.05365223
      0.68266667	      0.32655147	     -0.18019765	     -0.59267490	     -0.43775834	      1.07003590	      0.30777081	      9.91473676	      4.86335355	     -1.25133294	    -16.81800809	      5.15271189	     -7.83367438	      0.36569621	     19.05331496	     -0.97476121	     -2.45704332	    -63.58020212	      7.59331863	     -0.46513690	      2.71568213	     -1.07643006	      3.06598793	      0.11671242
      0.68683333	      0.29031783	     -0.03044249	     -0.61632931	     -0.43251916	      1.07048866	      0.30805560	      9.61791039	      4.75693798	     -1.04830929	    -16.76598766	      5.18072695	     -8.18093897	      0.35770240	     19.56825262	     -0.81133964	     -2.49114266	    -62.91922043	      7.73036912	     -1.17856302	      2.65725782	     -1.12895705	      2.94404943	      0.17421764
      0.69100000	      0.30009498	      0.09634564	     -0.53008240	     -0.42709955	      1.07102199	      0.30824022	      9.22699275	      4.66168120	     -0.95105446	    -16.64211980	      5.26331595	     -8.34343890	      0.35408242	     20.00393919	     -0.64194013	     -2.40614789	    -62.17250860	      7.92688135	     -1.55407222	      2.62974860	     -1.08695882	      2.70671771	      0.23286666
      0.69516667	      0.29799589	      0.22666928	     -0.53569925	     -0.42187945	      1.07146829	      0.30845668	      8.88539638	      4.56460066	     -0.77757532	    -16.57920550	      5.35211965	     -8.63495740	      0.34447275	     20.43925762	     -0.49151596	     -2.44393680	    -61.35990533	      8.05933737	     -2.37027863	      2.55396994	     -1.20431317	      2.56867475	      0.26347343
      0.69933333	      0.30309828	      0.34073558	     -0.44166237	     -0.41640557	      1.07196007	      0.30856962	      8.48847806	      4.47369406	     -0.71314184	    -16.44256334	      5.44961522	     -8.77859862	      0.33980172	     20.82585978	     -0.33001173	     -2.37276287	    -60.45286578	      8.21429590	     -2.73703112	      2.52016388	     -1.13005270	      2.38038816	      0.30795262
      0.70350000	      0.29777197	      0.44950816	     -0.40095848	     -0.41106405	      1.07237585	      0.30869783	      8.12491464	      4.38972490	     -0.60828445	    -16.34576910	      5.58966020	     -9.00215087	      0.33165130	     21.20576723	     -0.18827945	     -2.37225674	    -59.47861016	      8.37820153	     -3.41137010	      2.46289458	     -1.13773487	      2.20410890	      0.33200009
      0.70766667	      0.29550454	      0.54770662	     -0.36173417	     -0.40578929	      1.07274935	      0.30882728	      7.76104529	      4.31726307	     -0.48975983	    -16.24186157	      5.69434260	     -9.21577811	      0.31728445	     21.56741640	     -0.06123599	     -2.39888326	    -58.43264395	      8.33380132	     -4.21645112	      2.36229481	     -1.26774500	      2.07598295	      0.33778799
      0.71183333	      0.24694703	      0.61463257	     -0.25498162	     -0.40045050	      1.07302482	      0.30878883	      7.42786594	      4.26235646	     -0.41545920	    -16.11299546	      5.75666866	     -9.27517519	      0.31428483	     21.95572708	      0.06397895	     -2.31294273	    -57.32913940	      8.43254171	     -4.36830067	      2.34315694	     -1.27898937	      2.06791211	      0.34209368
      0.71600000	      0.29991541	      0.69754793	     -0.20773246	     -0.39500411	      1.07347756	      0.30891880	      6.97131941	      4.20718061	     -0.34428776	    -15.96003128	      5.94922266	     -9.53540683	      0.29291375	     22.17840324	      0.17235252	     -2.37375083	    -56.10634566	      8.39941233	     -5.38617872	      2.21128834	     -1.32204355	      1.85942339	      0.34985731
